<svg xmlns="http://www.w3.org/2000/svg" width="128" height="128" viewBox="0 0 128 128" role="img" aria-labelledby="title desc">
  <title id="title">Recall temporary icon</title>
  <desc id="desc">Temporary square icon with the letters RC.</desc>
  <defs>
    <linearGradient id="bg" x1="16" y1="12" x2="112" y2="116" gradientUnits="userSpaceOnUse">
      <stop offset="0" stop-color="#ca7752"/>
      <stop offset="1" stop-color="#78543a"/>
    </linearGradient>
  </defs>
  <rect x="8" y="8" width="112" height="112" rx="28" fill="url(#bg)"/>
  <circle cx="64" cy="64" r="32" fill="rgba(255,248,241,0.14)"/>
  <path d="M43 84V44h17c11.5 0 18 5.8 18 15.5 0 6.8-3.4 11.6-9.4 14l11.4 10.5H67L57.5 75H53v9H43zm10-17h6c5.8 0 9-2.6 9-7.2 0-4.8-3.2-7.3-9-7.3h-6v14.5z" fill="#fff8f1"/>
  <path d="M86 84c-5.5 0-9.6-4.1-9.6-9.6 0-5.2 3.7-9.4 9.4-9.4 2.6 0 4.7.7 6.5 2.1l-2.4 4.2c-1-.8-2.2-1.2-3.5-1.2-2.4 0-4 1.8-4 4.3 0 2.6 1.7 4.4 4.1 4.4 1.4 0 2.7-.5 3.9-1.4l2.2 4.1c-1.8 1.5-4.1 2.5-6.6 2.5z" fill="#fff8f1"/>
</svg>